<mxfile host="app.diagrams.net" modified="2024-03-03T11:03:18.533Z" agent="Mozilla/5.0 (Macintosh; Intel Mac OS X 10_15_7) AppleWebKit/605.1.15 (KHTML, like Gecko) Version/17.2.1 Safari/605.1.15" etag="CxL3-S3HaIowQ5V6ua4N" version="24.0.1" type="device">
  <diagram name="Page-1" id="VLk8CdQB5PkoJ_HwIOEN">
    <mxGraphModel dx="1377" dy="1945" grid="1" gridSize="10" guides="1" tooltips="1" connect="1" arrows="1" fold="1" page="1" pageScale="1" pageWidth="827" pageHeight="1169" math="0" shadow="0">
      <root>
        <mxCell id="0" />
        <mxCell id="1" parent="0" />
        <mxCell id="9uwfhOqgMr7yAqrxr7oz-1" value="User" style="swimlane;fontStyle=0;childLayout=stackLayout;horizontal=1;startSize=30;horizontalStack=0;resizeParent=1;resizeParentMax=0;resizeLast=0;collapsible=1;marginBottom=0;whiteSpace=wrap;html=1;swimlaneFillColor=default;gradientColor=none;" vertex="1" parent="1">
          <mxGeometry x="420" y="160" width="186" height="330" as="geometry" />
        </mxCell>
        <mxCell id="9uwfhOqgMr7yAqrxr7oz-2" value="- id : Integer" style="text;strokeColor=none;fillColor=none;align=left;verticalAlign=middle;spacingLeft=4;spacingRight=4;overflow=hidden;points=[[0,0.5],[1,0.5]];portConstraint=eastwest;rotatable=0;whiteSpace=wrap;html=1;" vertex="1" parent="9uwfhOqgMr7yAqrxr7oz-1">
          <mxGeometry y="30" width="186" height="30" as="geometry" />
        </mxCell>
        <mxCell id="9uwfhOqgMr7yAqrxr7oz-3" value="- username : String" style="text;strokeColor=none;fillColor=none;align=left;verticalAlign=middle;spacingLeft=4;spacingRight=4;overflow=hidden;points=[[0,0.5],[1,0.5]];portConstraint=eastwest;rotatable=0;whiteSpace=wrap;html=1;" vertex="1" parent="9uwfhOqgMr7yAqrxr7oz-1">
          <mxGeometry y="60" width="186" height="30" as="geometry" />
        </mxCell>
        <mxCell id="9uwfhOqgMr7yAqrxr7oz-4" value="- discriminator : String" style="text;strokeColor=none;fillColor=none;align=left;verticalAlign=middle;spacingLeft=4;spacingRight=4;overflow=hidden;points=[[0,0.5],[1,0.5]];portConstraint=eastwest;rotatable=0;whiteSpace=wrap;html=1;" vertex="1" parent="9uwfhOqgMr7yAqrxr7oz-1">
          <mxGeometry y="90" width="186" height="30" as="geometry" />
        </mxCell>
        <mxCell id="9uwfhOqgMr7yAqrxr7oz-6" value="- avatar : String" style="text;strokeColor=none;fillColor=none;align=left;verticalAlign=middle;spacingLeft=4;spacingRight=4;overflow=hidden;points=[[0,0.5],[1,0.5]];portConstraint=eastwest;rotatable=0;whiteSpace=wrap;html=1;" vertex="1" parent="9uwfhOqgMr7yAqrxr7oz-1">
          <mxGeometry y="120" width="186" height="30" as="geometry" />
        </mxCell>
        <mxCell id="9uwfhOqgMr7yAqrxr7oz-7" value="- bot : Boolean" style="text;strokeColor=none;fillColor=none;align=left;verticalAlign=middle;spacingLeft=4;spacingRight=4;overflow=hidden;points=[[0,0.5],[1,0.5]];portConstraint=eastwest;rotatable=0;whiteSpace=wrap;html=1;" vertex="1" parent="9uwfhOqgMr7yAqrxr7oz-1">
          <mxGeometry y="150" width="186" height="30" as="geometry" />
        </mxCell>
        <mxCell id="9uwfhOqgMr7yAqrxr7oz-8" value="- connection : connection_id" style="text;strokeColor=none;fillColor=none;align=left;verticalAlign=middle;spacingLeft=4;spacingRight=4;overflow=hidden;points=[[0,0.5],[1,0.5]];portConstraint=eastwest;rotatable=0;whiteSpace=wrap;html=1;" vertex="1" parent="9uwfhOqgMr7yAqrxr7oz-1">
          <mxGeometry y="180" width="186" height="30" as="geometry" />
        </mxCell>
        <mxCell id="9uwfhOqgMr7yAqrxr7oz-9" value="- premium_type : Integer" style="text;strokeColor=none;fillColor=none;align=left;verticalAlign=middle;spacingLeft=4;spacingRight=4;overflow=hidden;points=[[0,0.5],[1,0.5]];portConstraint=eastwest;rotatable=0;whiteSpace=wrap;html=1;" vertex="1" parent="9uwfhOqgMr7yAqrxr7oz-1">
          <mxGeometry y="210" width="186" height="30" as="geometry" />
        </mxCell>
        <mxCell id="9uwfhOqgMr7yAqrxr7oz-10" value="- mfa_enabled : Boolean" style="text;strokeColor=none;fillColor=none;align=left;verticalAlign=middle;spacingLeft=4;spacingRight=4;overflow=hidden;points=[[0,0.5],[1,0.5]];portConstraint=eastwest;rotatable=0;whiteSpace=wrap;html=1;" vertex="1" parent="9uwfhOqgMr7yAqrxr7oz-1">
          <mxGeometry y="240" width="186" height="30" as="geometry" />
        </mxCell>
        <mxCell id="9uwfhOqgMr7yAqrxr7oz-12" value="- verified : Boolean" style="text;strokeColor=none;fillColor=none;align=left;verticalAlign=middle;spacingLeft=4;spacingRight=4;overflow=hidden;points=[[0,0.5],[1,0.5]];portConstraint=eastwest;rotatable=0;whiteSpace=wrap;html=1;" vertex="1" parent="9uwfhOqgMr7yAqrxr7oz-1">
          <mxGeometry y="270" width="186" height="30" as="geometry" />
        </mxCell>
        <mxCell id="9uwfhOqgMr7yAqrxr7oz-13" value="- email : String" style="text;strokeColor=none;fillColor=none;align=left;verticalAlign=middle;spacingLeft=4;spacingRight=4;overflow=hidden;points=[[0,0.5],[1,0.5]];portConstraint=eastwest;rotatable=0;whiteSpace=wrap;html=1;" vertex="1" parent="9uwfhOqgMr7yAqrxr7oz-1">
          <mxGeometry y="300" width="186" height="30" as="geometry" />
        </mxCell>
        <mxCell id="9uwfhOqgMr7yAqrxr7oz-14" value="Server (Guild)" style="swimlane;fontStyle=0;childLayout=stackLayout;horizontal=1;startSize=30;horizontalStack=0;resizeParent=1;resizeParentMax=0;resizeLast=0;collapsible=1;marginBottom=0;whiteSpace=wrap;html=1;swimlaneFillColor=default;gradientColor=none;" vertex="1" parent="1">
          <mxGeometry x="-20" y="130" width="186" height="300" as="geometry" />
        </mxCell>
        <mxCell id="9uwfhOqgMr7yAqrxr7oz-15" value="- id : Integer" style="text;strokeColor=none;fillColor=none;align=left;verticalAlign=middle;spacingLeft=4;spacingRight=4;overflow=hidden;points=[[0,0.5],[1,0.5]];portConstraint=eastwest;rotatable=0;whiteSpace=wrap;html=1;" vertex="1" parent="9uwfhOqgMr7yAqrxr7oz-14">
          <mxGeometry y="30" width="186" height="30" as="geometry" />
        </mxCell>
        <mxCell id="9uwfhOqgMr7yAqrxr7oz-16" value="- name : String" style="text;strokeColor=none;fillColor=none;align=left;verticalAlign=middle;spacingLeft=4;spacingRight=4;overflow=hidden;points=[[0,0.5],[1,0.5]];portConstraint=eastwest;rotatable=0;whiteSpace=wrap;html=1;" vertex="1" parent="9uwfhOqgMr7yAqrxr7oz-14">
          <mxGeometry y="60" width="186" height="30" as="geometry" />
        </mxCell>
        <mxCell id="9uwfhOqgMr7yAqrxr7oz-17" value="- icon : String" style="text;strokeColor=none;fillColor=none;align=left;verticalAlign=middle;spacingLeft=4;spacingRight=4;overflow=hidden;points=[[0,0.5],[1,0.5]];portConstraint=eastwest;rotatable=0;whiteSpace=wrap;html=1;" vertex="1" parent="9uwfhOqgMr7yAqrxr7oz-14">
          <mxGeometry y="90" width="186" height="30" as="geometry" />
        </mxCell>
        <mxCell id="9uwfhOqgMr7yAqrxr7oz-18" value="- owner : Boolean" style="text;strokeColor=none;fillColor=none;align=left;verticalAlign=middle;spacingLeft=4;spacingRight=4;overflow=hidden;points=[[0,0.5],[1,0.5]];portConstraint=eastwest;rotatable=0;whiteSpace=wrap;html=1;" vertex="1" parent="9uwfhOqgMr7yAqrxr7oz-14">
          <mxGeometry y="120" width="186" height="30" as="geometry" />
        </mxCell>
        <mxCell id="9uwfhOqgMr7yAqrxr7oz-19" value="- owner_id : user_id" style="text;strokeColor=none;fillColor=none;align=left;verticalAlign=middle;spacingLeft=4;spacingRight=4;overflow=hidden;points=[[0,0.5],[1,0.5]];portConstraint=eastwest;rotatable=0;whiteSpace=wrap;html=1;" vertex="1" parent="9uwfhOqgMr7yAqrxr7oz-14">
          <mxGeometry y="150" width="186" height="30" as="geometry" />
        </mxCell>
        <mxCell id="9uwfhOqgMr7yAqrxr7oz-20" value="- permissions : Integer" style="text;strokeColor=none;fillColor=none;align=left;verticalAlign=middle;spacingLeft=4;spacingRight=4;overflow=hidden;points=[[0,0.5],[1,0.5]];portConstraint=eastwest;rotatable=0;whiteSpace=wrap;html=1;" vertex="1" parent="9uwfhOqgMr7yAqrxr7oz-14">
          <mxGeometry y="180" width="186" height="30" as="geometry" />
        </mxCell>
        <mxCell id="9uwfhOqgMr7yAqrxr7oz-21" value="- region : String" style="text;strokeColor=none;fillColor=none;align=left;verticalAlign=middle;spacingLeft=4;spacingRight=4;overflow=hidden;points=[[0,0.5],[1,0.5]];portConstraint=eastwest;rotatable=0;whiteSpace=wrap;html=1;" vertex="1" parent="9uwfhOqgMr7yAqrxr7oz-14">
          <mxGeometry y="210" width="186" height="30" as="geometry" />
        </mxCell>
        <mxCell id="9uwfhOqgMr7yAqrxr7oz-22" value="- channels : Array" style="text;strokeColor=none;fillColor=none;align=left;verticalAlign=middle;spacingLeft=4;spacingRight=4;overflow=hidden;points=[[0,0.5],[1,0.5]];portConstraint=eastwest;rotatable=0;whiteSpace=wrap;html=1;" vertex="1" parent="9uwfhOqgMr7yAqrxr7oz-14">
          <mxGeometry y="240" width="186" height="30" as="geometry" />
        </mxCell>
        <mxCell id="9uwfhOqgMr7yAqrxr7oz-23" value="- members : Array" style="text;strokeColor=none;fillColor=none;align=left;verticalAlign=middle;spacingLeft=4;spacingRight=4;overflow=hidden;points=[[0,0.5],[1,0.5]];portConstraint=eastwest;rotatable=0;whiteSpace=wrap;html=1;" vertex="1" parent="9uwfhOqgMr7yAqrxr7oz-14">
          <mxGeometry y="270" width="186" height="30" as="geometry" />
        </mxCell>
        <mxCell id="9uwfhOqgMr7yAqrxr7oz-27" style="edgeStyle=orthogonalEdgeStyle;rounded=0;orthogonalLoop=1;jettySize=auto;html=1;" edge="1" parent="1" source="9uwfhOqgMr7yAqrxr7oz-2" target="9uwfhOqgMr7yAqrxr7oz-19">
          <mxGeometry relative="1" as="geometry" />
        </mxCell>
        <mxCell id="9uwfhOqgMr7yAqrxr7oz-28" value="Connection" style="swimlane;fontStyle=0;childLayout=stackLayout;horizontal=1;startSize=30;horizontalStack=0;resizeParent=1;resizeParentMax=0;resizeLast=0;collapsible=1;marginBottom=0;whiteSpace=wrap;html=1;swimlaneFillColor=default;gradientColor=none;" vertex="1" parent="1">
          <mxGeometry x="120" y="-110" width="186" height="180" as="geometry" />
        </mxCell>
        <mxCell id="9uwfhOqgMr7yAqrxr7oz-50" value="- id : integer" style="text;strokeColor=none;fillColor=none;align=left;verticalAlign=middle;spacingLeft=4;spacingRight=4;overflow=hidden;points=[[0,0.5],[1,0.5]];portConstraint=eastwest;rotatable=0;whiteSpace=wrap;html=1;" vertex="1" parent="9uwfhOqgMr7yAqrxr7oz-28">
          <mxGeometry y="30" width="186" height="30" as="geometry" />
        </mxCell>
        <mxCell id="9uwfhOqgMr7yAqrxr7oz-30" value="- name : String" style="text;strokeColor=none;fillColor=none;align=left;verticalAlign=middle;spacingLeft=4;spacingRight=4;overflow=hidden;points=[[0,0.5],[1,0.5]];portConstraint=eastwest;rotatable=0;whiteSpace=wrap;html=1;" vertex="1" parent="9uwfhOqgMr7yAqrxr7oz-28">
          <mxGeometry y="60" width="186" height="30" as="geometry" />
        </mxCell>
        <mxCell id="9uwfhOqgMr7yAqrxr7oz-31" value="- type : String" style="text;strokeColor=none;fillColor=none;align=left;verticalAlign=middle;spacingLeft=4;spacingRight=4;overflow=hidden;points=[[0,0.5],[1,0.5]];portConstraint=eastwest;rotatable=0;whiteSpace=wrap;html=1;" vertex="1" parent="9uwfhOqgMr7yAqrxr7oz-28">
          <mxGeometry y="90" width="186" height="30" as="geometry" />
        </mxCell>
        <mxCell id="9uwfhOqgMr7yAqrxr7oz-32" value="- revoked : Boolean" style="text;strokeColor=none;fillColor=none;align=left;verticalAlign=middle;spacingLeft=4;spacingRight=4;overflow=hidden;points=[[0,0.5],[1,0.5]];portConstraint=eastwest;rotatable=0;whiteSpace=wrap;html=1;" vertex="1" parent="9uwfhOqgMr7yAqrxr7oz-28">
          <mxGeometry y="120" width="186" height="30" as="geometry" />
        </mxCell>
        <mxCell id="9uwfhOqgMr7yAqrxr7oz-33" value="- integrations : Array" style="text;strokeColor=none;fillColor=none;align=left;verticalAlign=middle;spacingLeft=4;spacingRight=4;overflow=hidden;points=[[0,0.5],[1,0.5]];portConstraint=eastwest;rotatable=0;whiteSpace=wrap;html=1;" vertex="1" parent="9uwfhOqgMr7yAqrxr7oz-28">
          <mxGeometry y="150" width="186" height="30" as="geometry" />
        </mxCell>
        <mxCell id="9uwfhOqgMr7yAqrxr7oz-38" value="Channel" style="swimlane;fontStyle=0;childLayout=stackLayout;horizontal=1;startSize=30;horizontalStack=0;resizeParent=1;resizeParentMax=0;resizeLast=0;collapsible=1;marginBottom=0;whiteSpace=wrap;html=1;swimlaneFillColor=default;gradientColor=none;" vertex="1" parent="1">
          <mxGeometry x="260" y="550" width="186" height="450" as="geometry" />
        </mxCell>
        <mxCell id="9uwfhOqgMr7yAqrxr7oz-39" value="- id : Integer" style="text;strokeColor=none;fillColor=none;align=left;verticalAlign=middle;spacingLeft=4;spacingRight=4;overflow=hidden;points=[[0,0.5],[1,0.5]];portConstraint=eastwest;rotatable=0;whiteSpace=wrap;html=1;" vertex="1" parent="9uwfhOqgMr7yAqrxr7oz-38">
          <mxGeometry y="30" width="186" height="30" as="geometry" />
        </mxCell>
        <mxCell id="9uwfhOqgMr7yAqrxr7oz-40" value="- type : String" style="text;strokeColor=none;fillColor=none;align=left;verticalAlign=middle;spacingLeft=4;spacingRight=4;overflow=hidden;points=[[0,0.5],[1,0.5]];portConstraint=eastwest;rotatable=0;whiteSpace=wrap;html=1;" vertex="1" parent="9uwfhOqgMr7yAqrxr7oz-38">
          <mxGeometry y="60" width="186" height="30" as="geometry" />
        </mxCell>
        <mxCell id="9uwfhOqgMr7yAqrxr7oz-41" value="- guild : guild_id" style="text;strokeColor=none;fillColor=none;align=left;verticalAlign=middle;spacingLeft=4;spacingRight=4;overflow=hidden;points=[[0,0.5],[1,0.5]];portConstraint=eastwest;rotatable=0;whiteSpace=wrap;html=1;" vertex="1" parent="9uwfhOqgMr7yAqrxr7oz-38">
          <mxGeometry y="90" width="186" height="30" as="geometry" />
        </mxCell>
        <mxCell id="9uwfhOqgMr7yAqrxr7oz-42" value="- position : Integer" style="text;strokeColor=none;fillColor=none;align=left;verticalAlign=middle;spacingLeft=4;spacingRight=4;overflow=hidden;points=[[0,0.5],[1,0.5]];portConstraint=eastwest;rotatable=0;whiteSpace=wrap;html=1;" vertex="1" parent="9uwfhOqgMr7yAqrxr7oz-38">
          <mxGeometry y="120" width="186" height="30" as="geometry" />
        </mxCell>
        <mxCell id="9uwfhOqgMr7yAqrxr7oz-43" value="- permission_overwrites : Array" style="text;strokeColor=none;fillColor=none;align=left;verticalAlign=middle;spacingLeft=4;spacingRight=4;overflow=hidden;points=[[0,0.5],[1,0.5]];portConstraint=eastwest;rotatable=0;whiteSpace=wrap;html=1;" vertex="1" parent="9uwfhOqgMr7yAqrxr7oz-38">
          <mxGeometry y="150" width="186" height="30" as="geometry" />
        </mxCell>
        <mxCell id="9uwfhOqgMr7yAqrxr7oz-45" value="- name : String" style="text;strokeColor=none;fillColor=none;align=left;verticalAlign=middle;spacingLeft=4;spacingRight=4;overflow=hidden;points=[[0,0.5],[1,0.5]];portConstraint=eastwest;rotatable=0;whiteSpace=wrap;html=1;" vertex="1" parent="9uwfhOqgMr7yAqrxr7oz-38">
          <mxGeometry y="180" width="186" height="30" as="geometry" />
        </mxCell>
        <mxCell id="9uwfhOqgMr7yAqrxr7oz-46" value="- topic : String" style="text;strokeColor=none;fillColor=none;align=left;verticalAlign=middle;spacingLeft=4;spacingRight=4;overflow=hidden;points=[[0,0.5],[1,0.5]];portConstraint=eastwest;rotatable=0;whiteSpace=wrap;html=1;" vertex="1" parent="9uwfhOqgMr7yAqrxr7oz-38">
          <mxGeometry y="210" width="186" height="30" as="geometry" />
        </mxCell>
        <mxCell id="9uwfhOqgMr7yAqrxr7oz-47" value="- nsfw : Boolean" style="text;strokeColor=none;fillColor=none;align=left;verticalAlign=middle;spacingLeft=4;spacingRight=4;overflow=hidden;points=[[0,0.5],[1,0.5]];portConstraint=eastwest;rotatable=0;whiteSpace=wrap;html=1;" vertex="1" parent="9uwfhOqgMr7yAqrxr7oz-38">
          <mxGeometry y="240" width="186" height="30" as="geometry" />
        </mxCell>
        <mxCell id="9uwfhOqgMr7yAqrxr7oz-48" value="- last_mesage_id : message_id" style="text;strokeColor=none;fillColor=none;align=left;verticalAlign=middle;spacingLeft=4;spacingRight=4;overflow=hidden;points=[[0,0.5],[1,0.5]];portConstraint=eastwest;rotatable=0;whiteSpace=wrap;html=1;" vertex="1" parent="9uwfhOqgMr7yAqrxr7oz-38">
          <mxGeometry y="270" width="186" height="30" as="geometry" />
        </mxCell>
        <mxCell id="9uwfhOqgMr7yAqrxr7oz-65" value="- user_limit : Integer" style="text;strokeColor=none;fillColor=none;align=left;verticalAlign=middle;spacingLeft=4;spacingRight=4;overflow=hidden;points=[[0,0.5],[1,0.5]];portConstraint=eastwest;rotatable=0;whiteSpace=wrap;html=1;" vertex="1" parent="9uwfhOqgMr7yAqrxr7oz-38">
          <mxGeometry y="300" width="186" height="30" as="geometry" />
        </mxCell>
        <mxCell id="9uwfhOqgMr7yAqrxr7oz-66" value="- rate_limit_per_user : Integer" style="text;strokeColor=none;fillColor=none;align=left;verticalAlign=middle;spacingLeft=4;spacingRight=4;overflow=hidden;points=[[0,0.5],[1,0.5]];portConstraint=eastwest;rotatable=0;whiteSpace=wrap;html=1;" vertex="1" parent="9uwfhOqgMr7yAqrxr7oz-38">
          <mxGeometry y="330" width="186" height="30" as="geometry" />
        </mxCell>
        <mxCell id="9uwfhOqgMr7yAqrxr7oz-67" value="- recipients : Array" style="text;strokeColor=none;fillColor=none;align=left;verticalAlign=middle;spacingLeft=4;spacingRight=4;overflow=hidden;points=[[0,0.5],[1,0.5]];portConstraint=eastwest;rotatable=0;whiteSpace=wrap;html=1;" vertex="1" parent="9uwfhOqgMr7yAqrxr7oz-38">
          <mxGeometry y="360" width="186" height="30" as="geometry" />
        </mxCell>
        <mxCell id="9uwfhOqgMr7yAqrxr7oz-68" value="- Icon : String" style="text;strokeColor=none;fillColor=none;align=left;verticalAlign=middle;spacingLeft=4;spacingRight=4;overflow=hidden;points=[[0,0.5],[1,0.5]];portConstraint=eastwest;rotatable=0;whiteSpace=wrap;html=1;" vertex="1" parent="9uwfhOqgMr7yAqrxr7oz-38">
          <mxGeometry y="390" width="186" height="30" as="geometry" />
        </mxCell>
        <mxCell id="9uwfhOqgMr7yAqrxr7oz-69" value="- owner_id : user_id" style="text;strokeColor=none;fillColor=none;align=left;verticalAlign=middle;spacingLeft=4;spacingRight=4;overflow=hidden;points=[[0,0.5],[1,0.5]];portConstraint=eastwest;rotatable=0;whiteSpace=wrap;html=1;" vertex="1" parent="9uwfhOqgMr7yAqrxr7oz-38">
          <mxGeometry y="420" width="186" height="30" as="geometry" />
        </mxCell>
        <mxCell id="9uwfhOqgMr7yAqrxr7oz-44" style="edgeStyle=orthogonalEdgeStyle;rounded=0;orthogonalLoop=1;jettySize=auto;html=1;entryX=1;entryY=0.5;entryDx=0;entryDy=0;" edge="1" parent="1" source="9uwfhOqgMr7yAqrxr7oz-41" target="9uwfhOqgMr7yAqrxr7oz-15">
          <mxGeometry relative="1" as="geometry" />
        </mxCell>
        <mxCell id="9uwfhOqgMr7yAqrxr7oz-52" style="edgeStyle=orthogonalEdgeStyle;rounded=0;orthogonalLoop=1;jettySize=auto;html=1;" edge="1" parent="1" source="9uwfhOqgMr7yAqrxr7oz-50" target="9uwfhOqgMr7yAqrxr7oz-8">
          <mxGeometry relative="1" as="geometry" />
        </mxCell>
        <mxCell id="9uwfhOqgMr7yAqrxr7oz-54" value="Message" style="swimlane;fontStyle=0;childLayout=stackLayout;horizontal=1;startSize=30;horizontalStack=0;resizeParent=1;resizeParentMax=0;resizeLast=0;collapsible=1;marginBottom=0;whiteSpace=wrap;html=1;swimlaneFillColor=default;gradientColor=none;" vertex="1" parent="1">
          <mxGeometry x="750" y="600" width="186" height="450" as="geometry" />
        </mxCell>
        <mxCell id="9uwfhOqgMr7yAqrxr7oz-55" value="- id : Integer" style="text;strokeColor=none;fillColor=none;align=left;verticalAlign=middle;spacingLeft=4;spacingRight=4;overflow=hidden;points=[[0,0.5],[1,0.5]];portConstraint=eastwest;rotatable=0;whiteSpace=wrap;html=1;" vertex="1" parent="9uwfhOqgMr7yAqrxr7oz-54">
          <mxGeometry y="30" width="186" height="30" as="geometry" />
        </mxCell>
        <mxCell id="9uwfhOqgMr7yAqrxr7oz-56" value="- channel : channel_id" style="text;strokeColor=none;fillColor=none;align=left;verticalAlign=middle;spacingLeft=4;spacingRight=4;overflow=hidden;points=[[0,0.5],[1,0.5]];portConstraint=eastwest;rotatable=0;whiteSpace=wrap;html=1;" vertex="1" parent="9uwfhOqgMr7yAqrxr7oz-54">
          <mxGeometry y="60" width="186" height="30" as="geometry" />
        </mxCell>
        <mxCell id="9uwfhOqgMr7yAqrxr7oz-57" value="- author : user_id" style="text;strokeColor=none;fillColor=none;align=left;verticalAlign=middle;spacingLeft=4;spacingRight=4;overflow=hidden;points=[[0,0.5],[1,0.5]];portConstraint=eastwest;rotatable=0;whiteSpace=wrap;html=1;" vertex="1" parent="9uwfhOqgMr7yAqrxr7oz-54">
          <mxGeometry y="90" width="186" height="30" as="geometry" />
        </mxCell>
        <mxCell id="9uwfhOqgMr7yAqrxr7oz-58" value="- content : String" style="text;strokeColor=none;fillColor=none;align=left;verticalAlign=middle;spacingLeft=4;spacingRight=4;overflow=hidden;points=[[0,0.5],[1,0.5]];portConstraint=eastwest;rotatable=0;whiteSpace=wrap;html=1;" vertex="1" parent="9uwfhOqgMr7yAqrxr7oz-54">
          <mxGeometry y="120" width="186" height="30" as="geometry" />
        </mxCell>
        <mxCell id="9uwfhOqgMr7yAqrxr7oz-59" value="- timestamp : Timestamp" style="text;strokeColor=none;fillColor=none;align=left;verticalAlign=middle;spacingLeft=4;spacingRight=4;overflow=hidden;points=[[0,0.5],[1,0.5]];portConstraint=eastwest;rotatable=0;whiteSpace=wrap;html=1;" vertex="1" parent="9uwfhOqgMr7yAqrxr7oz-54">
          <mxGeometry y="150" width="186" height="30" as="geometry" />
        </mxCell>
        <mxCell id="9uwfhOqgMr7yAqrxr7oz-60" value="- editied_timestamp : Timestamp" style="text;strokeColor=none;fillColor=none;align=left;verticalAlign=middle;spacingLeft=4;spacingRight=4;overflow=hidden;points=[[0,0.5],[1,0.5]];portConstraint=eastwest;rotatable=0;whiteSpace=wrap;html=1;" vertex="1" parent="9uwfhOqgMr7yAqrxr7oz-54">
          <mxGeometry y="180" width="186" height="30" as="geometry" />
        </mxCell>
        <mxCell id="9uwfhOqgMr7yAqrxr7oz-61" value="- tts : Boolean" style="text;strokeColor=none;fillColor=none;align=left;verticalAlign=middle;spacingLeft=4;spacingRight=4;overflow=hidden;points=[[0,0.5],[1,0.5]];portConstraint=eastwest;rotatable=0;whiteSpace=wrap;html=1;" vertex="1" parent="9uwfhOqgMr7yAqrxr7oz-54">
          <mxGeometry y="210" width="186" height="30" as="geometry" />
        </mxCell>
        <mxCell id="9uwfhOqgMr7yAqrxr7oz-74" value="- attachments : Array" style="text;strokeColor=none;fillColor=none;align=left;verticalAlign=middle;spacingLeft=4;spacingRight=4;overflow=hidden;points=[[0,0.5],[1,0.5]];portConstraint=eastwest;rotatable=0;whiteSpace=wrap;html=1;" vertex="1" parent="9uwfhOqgMr7yAqrxr7oz-54">
          <mxGeometry y="240" width="186" height="30" as="geometry" />
        </mxCell>
        <mxCell id="9uwfhOqgMr7yAqrxr7oz-75" value="- embeds : Array" style="text;strokeColor=none;fillColor=none;align=left;verticalAlign=middle;spacingLeft=4;spacingRight=4;overflow=hidden;points=[[0,0.5],[1,0.5]];portConstraint=eastwest;rotatable=0;whiteSpace=wrap;html=1;" vertex="1" parent="9uwfhOqgMr7yAqrxr7oz-54">
          <mxGeometry y="270" width="186" height="30" as="geometry" />
        </mxCell>
        <mxCell id="9uwfhOqgMr7yAqrxr7oz-62" value="- reactions : Array" style="text;strokeColor=none;fillColor=none;align=left;verticalAlign=middle;spacingLeft=4;spacingRight=4;overflow=hidden;points=[[0,0.5],[1,0.5]];portConstraint=eastwest;rotatable=0;whiteSpace=wrap;html=1;" vertex="1" parent="9uwfhOqgMr7yAqrxr7oz-54">
          <mxGeometry y="300" width="186" height="30" as="geometry" />
        </mxCell>
        <mxCell id="9uwfhOqgMr7yAqrxr7oz-63" value="- mention_everyone&amp;nbsp;: Boolean" style="text;strokeColor=none;fillColor=none;align=left;verticalAlign=middle;spacingLeft=4;spacingRight=4;overflow=hidden;points=[[0,0.5],[1,0.5]];portConstraint=eastwest;rotatable=0;whiteSpace=wrap;html=1;" vertex="1" parent="9uwfhOqgMr7yAqrxr7oz-54">
          <mxGeometry y="330" width="186" height="30" as="geometry" />
        </mxCell>
        <mxCell id="9uwfhOqgMr7yAqrxr7oz-76" value="- mentions : Array" style="text;strokeColor=none;fillColor=none;align=left;verticalAlign=middle;spacingLeft=4;spacingRight=4;overflow=hidden;points=[[0,0.5],[1,0.5]];portConstraint=eastwest;rotatable=0;whiteSpace=wrap;html=1;" vertex="1" parent="9uwfhOqgMr7yAqrxr7oz-54">
          <mxGeometry y="360" width="186" height="30" as="geometry" />
        </mxCell>
        <mxCell id="9uwfhOqgMr7yAqrxr7oz-77" value="- pinned : Boolean" style="text;strokeColor=none;fillColor=none;align=left;verticalAlign=middle;spacingLeft=4;spacingRight=4;overflow=hidden;points=[[0,0.5],[1,0.5]];portConstraint=eastwest;rotatable=0;whiteSpace=wrap;html=1;" vertex="1" parent="9uwfhOqgMr7yAqrxr7oz-54">
          <mxGeometry y="390" width="186" height="30" as="geometry" />
        </mxCell>
        <mxCell id="9uwfhOqgMr7yAqrxr7oz-78" value="- type : Integer" style="text;strokeColor=none;fillColor=none;align=left;verticalAlign=middle;spacingLeft=4;spacingRight=4;overflow=hidden;points=[[0,0.5],[1,0.5]];portConstraint=eastwest;rotatable=0;whiteSpace=wrap;html=1;" vertex="1" parent="9uwfhOqgMr7yAqrxr7oz-54">
          <mxGeometry y="420" width="186" height="30" as="geometry" />
        </mxCell>
        <mxCell id="9uwfhOqgMr7yAqrxr7oz-64" style="edgeStyle=orthogonalEdgeStyle;rounded=0;orthogonalLoop=1;jettySize=auto;html=1;entryX=1;entryY=0.5;entryDx=0;entryDy=0;" edge="1" parent="1" source="9uwfhOqgMr7yAqrxr7oz-55" target="9uwfhOqgMr7yAqrxr7oz-48">
          <mxGeometry relative="1" as="geometry">
            <Array as="points">
              <mxPoint x="598" y="645" />
              <mxPoint x="598" y="835" />
            </Array>
          </mxGeometry>
        </mxCell>
        <mxCell id="9uwfhOqgMr7yAqrxr7oz-71" style="edgeStyle=orthogonalEdgeStyle;rounded=0;orthogonalLoop=1;jettySize=auto;html=1;entryX=1;entryY=0.5;entryDx=0;entryDy=0;" edge="1" parent="1" source="9uwfhOqgMr7yAqrxr7oz-2" target="9uwfhOqgMr7yAqrxr7oz-69">
          <mxGeometry relative="1" as="geometry">
            <Array as="points">
              <mxPoint x="680" y="205" />
              <mxPoint x="680" y="985" />
            </Array>
          </mxGeometry>
        </mxCell>
        <mxCell id="9uwfhOqgMr7yAqrxr7oz-72" style="edgeStyle=orthogonalEdgeStyle;rounded=0;orthogonalLoop=1;jettySize=auto;html=1;entryX=0;entryY=0.5;entryDx=0;entryDy=0;" edge="1" parent="1" source="9uwfhOqgMr7yAqrxr7oz-39" target="9uwfhOqgMr7yAqrxr7oz-56">
          <mxGeometry relative="1" as="geometry">
            <Array as="points">
              <mxPoint x="640" y="595" />
              <mxPoint x="640" y="675" />
            </Array>
          </mxGeometry>
        </mxCell>
        <mxCell id="9uwfhOqgMr7yAqrxr7oz-73" style="edgeStyle=orthogonalEdgeStyle;rounded=0;orthogonalLoop=1;jettySize=auto;html=1;entryX=0;entryY=0.5;entryDx=0;entryDy=0;" edge="1" parent="1" source="9uwfhOqgMr7yAqrxr7oz-2" target="9uwfhOqgMr7yAqrxr7oz-57">
          <mxGeometry relative="1" as="geometry" />
        </mxCell>
        <mxCell id="9uwfhOqgMr7yAqrxr7oz-79" value="Attachement" style="swimlane;fontStyle=0;childLayout=stackLayout;horizontal=1;startSize=30;horizontalStack=0;resizeParent=1;resizeParentMax=0;resizeLast=0;collapsible=1;marginBottom=0;whiteSpace=wrap;html=1;swimlaneFillColor=default;gradientColor=none;" vertex="1" parent="1">
          <mxGeometry x="470" y="1090" width="186" height="240" as="geometry" />
        </mxCell>
        <mxCell id="9uwfhOqgMr7yAqrxr7oz-80" value="- id : integer" style="text;strokeColor=none;fillColor=none;align=left;verticalAlign=middle;spacingLeft=4;spacingRight=4;overflow=hidden;points=[[0,0.5],[1,0.5]];portConstraint=eastwest;rotatable=0;whiteSpace=wrap;html=1;" vertex="1" parent="9uwfhOqgMr7yAqrxr7oz-79">
          <mxGeometry y="30" width="186" height="30" as="geometry" />
        </mxCell>
        <mxCell id="9uwfhOqgMr7yAqrxr7oz-81" value="- filename : String" style="text;strokeColor=none;fillColor=none;align=left;verticalAlign=middle;spacingLeft=4;spacingRight=4;overflow=hidden;points=[[0,0.5],[1,0.5]];portConstraint=eastwest;rotatable=0;whiteSpace=wrap;html=1;" vertex="1" parent="9uwfhOqgMr7yAqrxr7oz-79">
          <mxGeometry y="60" width="186" height="30" as="geometry" />
        </mxCell>
        <mxCell id="9uwfhOqgMr7yAqrxr7oz-82" value="- size : Integer" style="text;strokeColor=none;fillColor=none;align=left;verticalAlign=middle;spacingLeft=4;spacingRight=4;overflow=hidden;points=[[0,0.5],[1,0.5]];portConstraint=eastwest;rotatable=0;whiteSpace=wrap;html=1;" vertex="1" parent="9uwfhOqgMr7yAqrxr7oz-79">
          <mxGeometry y="90" width="186" height="30" as="geometry" />
        </mxCell>
        <mxCell id="9uwfhOqgMr7yAqrxr7oz-83" value="- url : String" style="text;strokeColor=none;fillColor=none;align=left;verticalAlign=middle;spacingLeft=4;spacingRight=4;overflow=hidden;points=[[0,0.5],[1,0.5]];portConstraint=eastwest;rotatable=0;whiteSpace=wrap;html=1;" vertex="1" parent="9uwfhOqgMr7yAqrxr7oz-79">
          <mxGeometry y="120" width="186" height="30" as="geometry" />
        </mxCell>
        <mxCell id="9uwfhOqgMr7yAqrxr7oz-84" value="- proxy_url : String" style="text;strokeColor=none;fillColor=none;align=left;verticalAlign=middle;spacingLeft=4;spacingRight=4;overflow=hidden;points=[[0,0.5],[1,0.5]];portConstraint=eastwest;rotatable=0;whiteSpace=wrap;html=1;" vertex="1" parent="9uwfhOqgMr7yAqrxr7oz-79">
          <mxGeometry y="150" width="186" height="30" as="geometry" />
        </mxCell>
        <mxCell id="9uwfhOqgMr7yAqrxr7oz-85" value="- height : Integer" style="text;strokeColor=none;fillColor=none;align=left;verticalAlign=middle;spacingLeft=4;spacingRight=4;overflow=hidden;points=[[0,0.5],[1,0.5]];portConstraint=eastwest;rotatable=0;whiteSpace=wrap;html=1;" vertex="1" parent="9uwfhOqgMr7yAqrxr7oz-79">
          <mxGeometry y="180" width="186" height="30" as="geometry" />
        </mxCell>
        <mxCell id="9uwfhOqgMr7yAqrxr7oz-86" value="- width : Integer" style="text;strokeColor=none;fillColor=none;align=left;verticalAlign=middle;spacingLeft=4;spacingRight=4;overflow=hidden;points=[[0,0.5],[1,0.5]];portConstraint=eastwest;rotatable=0;whiteSpace=wrap;html=1;" vertex="1" parent="9uwfhOqgMr7yAqrxr7oz-79">
          <mxGeometry y="210" width="186" height="30" as="geometry" />
        </mxCell>
        <mxCell id="9uwfhOqgMr7yAqrxr7oz-87" style="edgeStyle=orthogonalEdgeStyle;rounded=0;orthogonalLoop=1;jettySize=auto;html=1;entryX=0;entryY=0.5;entryDx=0;entryDy=0;" edge="1" parent="1" source="9uwfhOqgMr7yAqrxr7oz-80" target="9uwfhOqgMr7yAqrxr7oz-74">
          <mxGeometry relative="1" as="geometry" />
        </mxCell>
        <mxCell id="9uwfhOqgMr7yAqrxr7oz-88" value="Embed" style="swimlane;fontStyle=0;childLayout=stackLayout;horizontal=1;startSize=30;horizontalStack=0;resizeParent=1;resizeParentMax=0;resizeLast=0;collapsible=1;marginBottom=0;whiteSpace=wrap;html=1;swimlaneFillColor=default;gradientColor=none;" vertex="1" parent="1">
          <mxGeometry x="750" y="1210" width="186" height="240" as="geometry" />
        </mxCell>
        <mxCell id="9uwfhOqgMr7yAqrxr7oz-89" value="- id : integer" style="text;strokeColor=none;fillColor=none;align=left;verticalAlign=middle;spacingLeft=4;spacingRight=4;overflow=hidden;points=[[0,0.5],[1,0.5]];portConstraint=eastwest;rotatable=0;whiteSpace=wrap;html=1;" vertex="1" parent="9uwfhOqgMr7yAqrxr7oz-88">
          <mxGeometry y="30" width="186" height="30" as="geometry" />
        </mxCell>
        <mxCell id="9uwfhOqgMr7yAqrxr7oz-90" value="- filename : String" style="text;strokeColor=none;fillColor=none;align=left;verticalAlign=middle;spacingLeft=4;spacingRight=4;overflow=hidden;points=[[0,0.5],[1,0.5]];portConstraint=eastwest;rotatable=0;whiteSpace=wrap;html=1;" vertex="1" parent="9uwfhOqgMr7yAqrxr7oz-88">
          <mxGeometry y="60" width="186" height="30" as="geometry" />
        </mxCell>
        <mxCell id="9uwfhOqgMr7yAqrxr7oz-91" value="- size : Integer" style="text;strokeColor=none;fillColor=none;align=left;verticalAlign=middle;spacingLeft=4;spacingRight=4;overflow=hidden;points=[[0,0.5],[1,0.5]];portConstraint=eastwest;rotatable=0;whiteSpace=wrap;html=1;" vertex="1" parent="9uwfhOqgMr7yAqrxr7oz-88">
          <mxGeometry y="90" width="186" height="30" as="geometry" />
        </mxCell>
        <mxCell id="9uwfhOqgMr7yAqrxr7oz-92" value="- url : String" style="text;strokeColor=none;fillColor=none;align=left;verticalAlign=middle;spacingLeft=4;spacingRight=4;overflow=hidden;points=[[0,0.5],[1,0.5]];portConstraint=eastwest;rotatable=0;whiteSpace=wrap;html=1;" vertex="1" parent="9uwfhOqgMr7yAqrxr7oz-88">
          <mxGeometry y="120" width="186" height="30" as="geometry" />
        </mxCell>
        <mxCell id="9uwfhOqgMr7yAqrxr7oz-93" value="- proxy_url : String" style="text;strokeColor=none;fillColor=none;align=left;verticalAlign=middle;spacingLeft=4;spacingRight=4;overflow=hidden;points=[[0,0.5],[1,0.5]];portConstraint=eastwest;rotatable=0;whiteSpace=wrap;html=1;" vertex="1" parent="9uwfhOqgMr7yAqrxr7oz-88">
          <mxGeometry y="150" width="186" height="30" as="geometry" />
        </mxCell>
        <mxCell id="9uwfhOqgMr7yAqrxr7oz-94" value="- height : Integer" style="text;strokeColor=none;fillColor=none;align=left;verticalAlign=middle;spacingLeft=4;spacingRight=4;overflow=hidden;points=[[0,0.5],[1,0.5]];portConstraint=eastwest;rotatable=0;whiteSpace=wrap;html=1;" vertex="1" parent="9uwfhOqgMr7yAqrxr7oz-88">
          <mxGeometry y="180" width="186" height="30" as="geometry" />
        </mxCell>
        <mxCell id="9uwfhOqgMr7yAqrxr7oz-95" value="- width : Integer" style="text;strokeColor=none;fillColor=none;align=left;verticalAlign=middle;spacingLeft=4;spacingRight=4;overflow=hidden;points=[[0,0.5],[1,0.5]];portConstraint=eastwest;rotatable=0;whiteSpace=wrap;html=1;" vertex="1" parent="9uwfhOqgMr7yAqrxr7oz-88">
          <mxGeometry y="210" width="186" height="30" as="geometry" />
        </mxCell>
        <mxCell id="9uwfhOqgMr7yAqrxr7oz-96" style="edgeStyle=orthogonalEdgeStyle;rounded=0;orthogonalLoop=1;jettySize=auto;html=1;" edge="1" parent="1" source="9uwfhOqgMr7yAqrxr7oz-89" target="9uwfhOqgMr7yAqrxr7oz-75">
          <mxGeometry relative="1" as="geometry">
            <mxPoint x="1020" y="919.9999999999995" as="targetPoint" />
            <Array as="points">
              <mxPoint x="970" y="1255" />
              <mxPoint x="970" y="885" />
            </Array>
          </mxGeometry>
        </mxCell>
        <mxCell id="9uwfhOqgMr7yAqrxr7oz-97" value="Emoji" style="swimlane;fontStyle=0;childLayout=stackLayout;horizontal=1;startSize=20;horizontalStack=0;resizeParent=1;resizeParentMax=0;resizeLast=0;collapsible=1;marginBottom=0;whiteSpace=wrap;html=1;swimlaneFillColor=default;gradientColor=none;" vertex="1" parent="1">
          <mxGeometry x="1090" y="1060" width="186" height="230" as="geometry" />
        </mxCell>
        <mxCell id="9uwfhOqgMr7yAqrxr7oz-98" value="- id : integer" style="text;strokeColor=none;fillColor=none;align=left;verticalAlign=middle;spacingLeft=4;spacingRight=4;overflow=hidden;points=[[0,0.5],[1,0.5]];portConstraint=eastwest;rotatable=0;whiteSpace=wrap;html=1;" vertex="1" parent="9uwfhOqgMr7yAqrxr7oz-97">
          <mxGeometry y="20" width="186" height="30" as="geometry" />
        </mxCell>
        <mxCell id="9uwfhOqgMr7yAqrxr7oz-99" value="- name : String" style="text;strokeColor=none;fillColor=none;align=left;verticalAlign=middle;spacingLeft=4;spacingRight=4;overflow=hidden;points=[[0,0.5],[1,0.5]];portConstraint=eastwest;rotatable=0;whiteSpace=wrap;html=1;" vertex="1" parent="9uwfhOqgMr7yAqrxr7oz-97">
          <mxGeometry y="50" width="186" height="30" as="geometry" />
        </mxCell>
        <mxCell id="9uwfhOqgMr7yAqrxr7oz-100" value="- roles : Array" style="text;strokeColor=none;fillColor=none;align=left;verticalAlign=middle;spacingLeft=4;spacingRight=4;overflow=hidden;points=[[0,0.5],[1,0.5]];portConstraint=eastwest;rotatable=0;whiteSpace=wrap;html=1;" vertex="1" parent="9uwfhOqgMr7yAqrxr7oz-97">
          <mxGeometry y="80" width="186" height="30" as="geometry" />
        </mxCell>
        <mxCell id="9uwfhOqgMr7yAqrxr7oz-101" value="- user : user_id" style="text;strokeColor=none;fillColor=none;align=left;verticalAlign=middle;spacingLeft=4;spacingRight=4;overflow=hidden;points=[[0,0.5],[1,0.5]];portConstraint=eastwest;rotatable=0;whiteSpace=wrap;html=1;" vertex="1" parent="9uwfhOqgMr7yAqrxr7oz-97">
          <mxGeometry y="110" width="186" height="30" as="geometry" />
        </mxCell>
        <mxCell id="9uwfhOqgMr7yAqrxr7oz-102" value="- requires_colons : Boolean" style="text;strokeColor=none;fillColor=none;align=left;verticalAlign=middle;spacingLeft=4;spacingRight=4;overflow=hidden;points=[[0,0.5],[1,0.5]];portConstraint=eastwest;rotatable=0;whiteSpace=wrap;html=1;" vertex="1" parent="9uwfhOqgMr7yAqrxr7oz-97">
          <mxGeometry y="140" width="186" height="30" as="geometry" />
        </mxCell>
        <mxCell id="9uwfhOqgMr7yAqrxr7oz-103" value="- managed : Boolean" style="text;strokeColor=none;fillColor=none;align=left;verticalAlign=middle;spacingLeft=4;spacingRight=4;overflow=hidden;points=[[0,0.5],[1,0.5]];portConstraint=eastwest;rotatable=0;whiteSpace=wrap;html=1;" vertex="1" parent="9uwfhOqgMr7yAqrxr7oz-97">
          <mxGeometry y="170" width="186" height="30" as="geometry" />
        </mxCell>
        <mxCell id="9uwfhOqgMr7yAqrxr7oz-104" value="- animated : Boolean" style="text;strokeColor=none;fillColor=none;align=left;verticalAlign=middle;spacingLeft=4;spacingRight=4;overflow=hidden;points=[[0,0.5],[1,0.5]];portConstraint=eastwest;rotatable=0;whiteSpace=wrap;html=1;" vertex="1" parent="9uwfhOqgMr7yAqrxr7oz-97">
          <mxGeometry y="200" width="186" height="30" as="geometry" />
        </mxCell>
        <mxCell id="9uwfhOqgMr7yAqrxr7oz-105" value="Reaction" style="swimlane;fontStyle=0;childLayout=stackLayout;horizontal=1;startSize=30;horizontalStack=0;resizeParent=1;resizeParentMax=0;resizeLast=0;collapsible=1;marginBottom=0;whiteSpace=wrap;html=1;swimlaneFillColor=default;gradientColor=none;" vertex="1" parent="1">
          <mxGeometry x="1055" y="770" width="186" height="120" as="geometry" />
        </mxCell>
        <mxCell id="9uwfhOqgMr7yAqrxr7oz-106" value="- id : integer" style="text;strokeColor=none;fillColor=none;align=left;verticalAlign=middle;spacingLeft=4;spacingRight=4;overflow=hidden;points=[[0,0.5],[1,0.5]];portConstraint=eastwest;rotatable=0;whiteSpace=wrap;html=1;" vertex="1" parent="9uwfhOqgMr7yAqrxr7oz-105">
          <mxGeometry y="30" width="186" height="30" as="geometry" />
        </mxCell>
        <mxCell id="9uwfhOqgMr7yAqrxr7oz-107" value="- count : Integer" style="text;strokeColor=none;fillColor=none;align=left;verticalAlign=middle;spacingLeft=4;spacingRight=4;overflow=hidden;points=[[0,0.5],[1,0.5]];portConstraint=eastwest;rotatable=0;whiteSpace=wrap;html=1;" vertex="1" parent="9uwfhOqgMr7yAqrxr7oz-105">
          <mxGeometry y="60" width="186" height="30" as="geometry" />
        </mxCell>
        <mxCell id="9uwfhOqgMr7yAqrxr7oz-108" value="- me : Boolean" style="text;strokeColor=none;fillColor=none;align=left;verticalAlign=middle;spacingLeft=4;spacingRight=4;overflow=hidden;points=[[0,0.5],[1,0.5]];portConstraint=eastwest;rotatable=0;whiteSpace=wrap;html=1;" vertex="1" parent="9uwfhOqgMr7yAqrxr7oz-105">
          <mxGeometry y="90" width="186" height="30" as="geometry" />
        </mxCell>
        <mxCell id="9uwfhOqgMr7yAqrxr7oz-113" style="edgeStyle=orthogonalEdgeStyle;rounded=0;orthogonalLoop=1;jettySize=auto;html=1;entryX=1;entryY=0.5;entryDx=0;entryDy=0;" edge="1" parent="1" source="9uwfhOqgMr7yAqrxr7oz-106" target="9uwfhOqgMr7yAqrxr7oz-62">
          <mxGeometry relative="1" as="geometry" />
        </mxCell>
        <mxCell id="9uwfhOqgMr7yAqrxr7oz-115" style="edgeStyle=orthogonalEdgeStyle;rounded=0;orthogonalLoop=1;jettySize=auto;html=1;entryX=0;entryY=0.5;entryDx=0;entryDy=0;" edge="1" parent="1" source="9uwfhOqgMr7yAqrxr7oz-55" target="9uwfhOqgMr7yAqrxr7oz-101">
          <mxGeometry relative="1" as="geometry" />
        </mxCell>
        <mxCell id="9uwfhOqgMr7yAqrxr7oz-116" value="Invite" style="swimlane;fontStyle=0;childLayout=stackLayout;horizontal=1;startSize=30;horizontalStack=0;resizeParent=1;resizeParentMax=0;resizeLast=0;collapsible=1;marginBottom=0;whiteSpace=wrap;html=1;swimlaneFillColor=default;gradientColor=none;" vertex="1" parent="1">
          <mxGeometry x="750" y="-100" width="230" height="180" as="geometry" />
        </mxCell>
        <mxCell id="9uwfhOqgMr7yAqrxr7oz-117" value="- code : String" style="text;strokeColor=none;fillColor=none;align=left;verticalAlign=middle;spacingLeft=4;spacingRight=4;overflow=hidden;points=[[0,0.5],[1,0.5]];portConstraint=eastwest;rotatable=0;whiteSpace=wrap;html=1;" vertex="1" parent="9uwfhOqgMr7yAqrxr7oz-116">
          <mxGeometry y="30" width="230" height="30" as="geometry" />
        </mxCell>
        <mxCell id="9uwfhOqgMr7yAqrxr7oz-118" value="- guild : guild_id" style="text;strokeColor=none;fillColor=none;align=left;verticalAlign=middle;spacingLeft=4;spacingRight=4;overflow=hidden;points=[[0,0.5],[1,0.5]];portConstraint=eastwest;rotatable=0;whiteSpace=wrap;html=1;" vertex="1" parent="9uwfhOqgMr7yAqrxr7oz-116">
          <mxGeometry y="60" width="230" height="30" as="geometry" />
        </mxCell>
        <mxCell id="9uwfhOqgMr7yAqrxr7oz-119" value="- channel : channel_id" style="text;strokeColor=none;fillColor=none;align=left;verticalAlign=middle;spacingLeft=4;spacingRight=4;overflow=hidden;points=[[0,0.5],[1,0.5]];portConstraint=eastwest;rotatable=0;whiteSpace=wrap;html=1;" vertex="1" parent="9uwfhOqgMr7yAqrxr7oz-116">
          <mxGeometry y="90" width="230" height="30" as="geometry" />
        </mxCell>
        <mxCell id="9uwfhOqgMr7yAqrxr7oz-120" value="- approximate_presence_count : Integer" style="text;strokeColor=none;fillColor=none;align=left;verticalAlign=middle;spacingLeft=4;spacingRight=4;overflow=hidden;points=[[0,0.5],[1,0.5]];portConstraint=eastwest;rotatable=0;whiteSpace=wrap;html=1;" vertex="1" parent="9uwfhOqgMr7yAqrxr7oz-116">
          <mxGeometry y="120" width="230" height="30" as="geometry" />
        </mxCell>
        <mxCell id="9uwfhOqgMr7yAqrxr7oz-124" value="- approximate_member_count : Integer" style="text;strokeColor=none;fillColor=none;align=left;verticalAlign=middle;spacingLeft=4;spacingRight=4;overflow=hidden;points=[[0,0.5],[1,0.5]];portConstraint=eastwest;rotatable=0;whiteSpace=wrap;html=1;" vertex="1" parent="9uwfhOqgMr7yAqrxr7oz-116">
          <mxGeometry y="150" width="230" height="30" as="geometry" />
        </mxCell>
        <mxCell id="9uwfhOqgMr7yAqrxr7oz-122" style="edgeStyle=orthogonalEdgeStyle;rounded=0;orthogonalLoop=1;jettySize=auto;html=1;entryX=0;entryY=0.5;entryDx=0;entryDy=0;" edge="1" parent="1" source="9uwfhOqgMr7yAqrxr7oz-15" target="9uwfhOqgMr7yAqrxr7oz-118">
          <mxGeometry relative="1" as="geometry">
            <Array as="points">
              <mxPoint x="390" y="175" />
              <mxPoint x="390" y="-25" />
            </Array>
          </mxGeometry>
        </mxCell>
        <mxCell id="9uwfhOqgMr7yAqrxr7oz-123" style="edgeStyle=orthogonalEdgeStyle;rounded=0;orthogonalLoop=1;jettySize=auto;html=1;entryX=1;entryY=0.5;entryDx=0;entryDy=0;" edge="1" parent="1">
          <mxGeometry relative="1" as="geometry">
            <mxPoint x="446" y="590" as="sourcePoint" />
            <mxPoint x="980" as="targetPoint" />
            <Array as="points">
              <mxPoint x="490" y="590" />
              <mxPoint x="490" y="535" />
              <mxPoint x="1030" y="535" />
              <mxPoint x="1030" />
            </Array>
          </mxGeometry>
        </mxCell>
      </root>
    </mxGraphModel>
  </diagram>
</mxfile>
